<svg xmlns="http://www.w3.org/2000/svg" width="64" height="64" fill="none">
  <g clip-path="url(#a)">
    <path fill="#4D5AE5" d="M29.851 29.93h2.132v9.594h-2.132V29.93ZM38.38 34.194h2.132v5.33H38.38v-5.33ZM21.322 37.392h2.132v2.132h-2.132v-2.132ZM14.925 36.326h2.133v3.198h-2.133v-3.198Z"/>
    <path fill="#2E2F42" d="M3.198 56.582h51.173a3.198 3.198 0 0 0 3.199-3.198v-4.265a3.198 3.198 0 0 0-3.199-3.198h-1.066V19.334l6.056-5.736a3.216 3.216 0 1 0-1.493-1.526l-4.563 4.325v-2.46a3.198 3.198 0 0 0-3.198-3.198H7.463a3.198 3.198 0 0 0-3.199 3.199V45.92H3.198A3.198 3.198 0 0 0 0 49.119v4.265a3.198 3.198 0 0 0 3.198 3.198Zm57.57-46.909a1.066 1.066 0 1 1 0 2.133 1.066 1.066 0 0 1 0-2.133ZM6.397 13.938c0-.59.477-1.067 1.066-1.067h42.644c.589 0 1.066.478 1.066 1.067v4.477l-2.132 2.026V16.07c0-.589-.477-1.066-1.066-1.066H9.595c-.589 0-1.066.477-1.066 1.066v26.652c0 .59.477 1.067 1.066 1.067h38.38c.589 0 1.066-.478 1.066-1.067V23.374l2.132-2.02V45.92H6.397V13.938Zm9.595 13.859a3.198 3.198 0 1 0 2.214 5.497l3.706 1.86c.43.215.953.114 1.273-.246l7.877-8.863 7.744 5.803c.416.311.996.278 1.372-.079l6.73-6.375v16.262H10.662v-24.52H46.91v5.32L39.366 29.6l-7.81-5.855a1.067 1.067 0 0 0-1.435.145l-7.986 8.985-2.986-1.493c.022-.128.036-.257.041-.387a3.199 3.199 0 0 0-3.198-3.198Zm1.066 3.198a1.066 1.066 0 1 1-2.133 0 1.066 1.066 0 0 1 2.133 0Zm6.396 17.058h10.661v1.066c0 .589-.477 1.066-1.066 1.066H24.52a1.066 1.066 0 0 1-1.066-1.066v-1.066ZM2.132 49.12c0-.589.478-1.066 1.066-1.066h18.124v1.066a3.198 3.198 0 0 0 3.198 3.199h8.53a3.198 3.198 0 0 0 3.198-3.199v-1.066H54.37c.59 0 1.067.477 1.067 1.066v4.265c0 .588-.478 1.066-1.067 1.066H3.198a1.066 1.066 0 0 1-1.066-1.066v-4.265Z"/>
  </g>
  <defs>
    <clipPath id="a">
      <path fill="#fff" d="M0 0h64v64H0z"/>
    </clipPath>
  </defs>
</svg>
