<!-- Generated by IcoMoon.io -->
<svg version="1.1" xmlns="http://www.w3.org/2000/svg" width="1902" height="1024" viewBox="0 0 1902 1024">
<title></title>
<g id="icomoon-ignore">
</g>
<path d="M489.909 811.392c4.489 5.001 6.879 11.266 6.755 17.695 0.229 4.193-0.594 8.379-2.405 12.248-1.812 3.869-4.568 7.322-8.062 10.103-8.72 5.928-19.522 8.827-30.426 8.161h-53.486v-112.135h52.39c10.342-0.618 20.603 2.015 29.027 7.451 3.383 2.549 6.062 5.771 7.826 9.412 1.763 3.641 2.562 7.601 2.335 11.568 0.307 6.186-1.851 12.268-6.085 17.147-4.065 4.456-9.682 7.545-15.941 8.766 7.095 1.165 13.5 4.562 18.072 9.585zM427.173 794.465h22.393c5.089 0.34 10.145-0.984 14.239-3.725 1.68-1.371 2.99-3.074 3.824-4.974s1.17-3.946 0.984-5.981c0.157-2.030-0.187-4.065-1.006-5.959-0.821-1.894-2.099-3.6-3.741-4.997-4.217-2.82-9.428-4.162-14.663-3.78h-22.029v29.416zM465.995 837.467c1.797-1.404 3.209-3.162 4.129-5.138 0.918-1.977 1.317-4.118 1.165-6.256 0.137-2.163-0.28-4.325-1.22-6.32-0.938-1.995-2.373-3.769-4.197-5.184-4.379-2.924-9.768-4.359-15.212-4.054h-23.488v30.841h23.793c5.354 0.278 10.655-1.093 15.029-3.889z"></path>
<path d="M597.005 859.599l-29.147-43.824h-10.953v43.824h-25.070v-112.135h47.462c11.964-0.752 23.792 2.661 33.042 9.532 6.634 6.085 10.635 14.106 11.282 22.612 0.647 8.508-2.103 16.944-7.753 23.788-5.857 6.038-13.855 10.064-22.636 11.394l31.033 44.809h-27.26zM556.904 800.492h20.507c14.237 0 21.358-5.661 21.358-16.982 0.144-2.313-0.245-4.626-1.147-6.795-0.9-2.169-2.293-4.145-4.087-5.806-4.5-3.368-10.295-5.003-16.124-4.546h-20.751l0.243 34.128z"></path>
<path d="M734.036 837.032h-49.957l-8.825 22.568h-26.286l45.881-110.875h28.416l45.698 110.875h-26.288l-8.64-22.568zM727.344 820.050l-18.256-47.331-18.255 47.331h36.511z"></path>
<path d="M905.571 859.6h-24.887l-55.799-76.255v76.255h-24.827v-112.135h24.827l55.799 76.692v-76.692h24.887v112.135z"></path>
<path d="M1047.594 832.759c-5.146 8.466-12.987 15.353-22.515 19.774-10.832 4.926-22.855 7.355-34.988 7.067h-44.299v-112.135h44.299c12.111-0.285 24.119 2.085 34.988 6.903 9.527 4.321 17.375 11.14 22.515 19.557 5.122 9.119 7.792 19.196 7.792 29.416s-2.67 20.297-7.792 29.418zM1019.116 830.075c7.102-7.45 11.008-16.944 11.008-26.761s-3.906-19.31-11.008-26.759c-8.585-6.747-19.781-10.174-31.155-9.532h-17.28v72.583h17.28c11.374 0.642 22.57-2.783 31.155-9.531z"></path>
<path d="M749.614 123.734c0 0 321.223 109.178 314.408 267.165v267.218c0 0-320.98-109.232-314.286-267.218l-0.123-267.165z"></path>
<path d="M1350.197 595.555c60.665-37.586 130.838-60.866 204.089-67.708v-83.65c-84.403 29.285-156.003 82.386-204.089 151.358z"></path>
<path d="M1313.748 620.76c49.655-90.011 135.735-159.47 240.538-194.088v-241.033c0 0-457.467 155.522-447.792 380.504v380.451c0 0 20.385-6.958 52.453-19.995 0-12.16 0-24.432 1.461-36.758 9.468-104.448 64.624-201.234 153.34-269.080z"></path>
<path d="M1270.241 762.092c2.405-26.384 7.766-52.484 16.004-77.897-55.241 58.591-88.695 131.295-95.654 207.89-0.669 7.232-1.035 14.462-1.218 21.914 25.984-11.231 56.225-25.254 87.989-41.743-8.106-36.239-10.503-73.324-7.12-110.164z"></path>
<path d="M1288.433 763.463c-3.045 33.329-1.141 66.876 5.659 99.754 124.985-67.324 265.424-171.354 260.010-297.073v-10.957c-89.296 8.995-172.842 44.138-237.8 100.028-15.208 34.637-24.602 71.119-27.869 108.248z"></path>
</svg>
