<!-- Generated by IcoMoon.io -->
<svg version="1.1" xmlns="http://www.w3.org/2000/svg" width="1902" height="1024" viewBox="0 0 1902 1024">
<title></title>
<g id="icomoon-ignore">
</g>
<path d="M978.821 501.82c-8.119-10.805-12.003-23.572-11.081-36.425v-52.811c0-16.188 3.674-28.491 11.019-36.908 7.347-8.417 19.964-12.606 37.853-12.571 16.81 0 28.743 3.582 35.798 10.745 7.696 9.139 11.441 20.317 10.584 31.59v12.411h-30.071v-12.571c0.108-4.116-0.185-8.23-0.87-12.303-0.433-2.785-1.947-5.361-4.295-7.307-3.088-2.097-6.978-3.114-10.896-2.847-4.12-0.265-8.205 0.806-11.454 3.008-2.62 2.156-4.367 4.981-4.981 8.059-0.863 4.31-1.258 8.68-1.183 13.054v64.093c-0.474 6.182 0.852 12.37 3.86 17.997 1.496 1.905 3.573 3.414 6.001 4.363 2.428 0.947 5.113 1.298 7.757 1.009 3.853 0.274 7.675-0.768 10.646-2.9 2.45-2.099 4.027-4.837 4.484-7.79 0.702-4.253 1.015-8.547 0.933-12.84v-13.001h30.071v11.873c0.845 11.75-2.809 23.417-10.397 33.201-6.91 7.843-18.677 11.765-35.984 11.765s-30.382-4.189-37.791-12.893z"></path>
<path d="M1104.024 502.358c-7.594-8.219-11.392-20.2-11.392-36.048v-55.552c0-15.687 3.798-27.56 11.392-35.619 7.596-8.059 20.297-12.069 38.102-12.034 17.68 0 30.32 4.012 37.914 12.034 7.596 8.059 11.456 19.931 11.456 35.619v55.552c0 15.687-3.86 27.721-11.58 35.994s-20.295 12.411-37.789 12.411-30.444-4.189-38.102-12.356zM1156.133 489.033c2.721-5.147 3.959-10.789 3.611-16.439v-68.014c0.349-5.542-0.869-11.074-3.549-16.117-1.525-1.946-3.653-3.48-6.14-4.429-2.489-0.951-5.235-1.278-7.929-0.944-2.701-0.325-5.455 0.005-7.951 0.955s-4.635 2.478-6.182 4.418c-2.737 5.029-3.979 10.569-3.61 16.117v68.336c-0.379 5.654 0.861 11.299 3.61 16.441 1.754 1.732 3.917 3.121 6.343 4.074 2.427 0.951 5.061 1.443 7.728 1.443s5.301-0.492 7.728-1.443c2.427-0.953 4.59-2.342 6.341-4.074v-0.324z"></path>
<path d="M1227.663 364.727h32.375l24.342 102.495 24.903-102.495h31.503l3.174 147.941h-23.285l-2.489-102.817-24.033 102.817h-18.677l-24.903-103.194-2.302 103.194h-23.534l2.926-147.941z"></path>
<path d="M1380.259 364.727h50.427c29.054 0 43.58 14.003 43.58 42.008 0 26.823-15.294 40.218-45.883 40.181h-17.183v65.752h-31.128l0.187-147.941zM1423.34 427.953c3.076 0.336 6.199 0.093 9.156-0.713 2.955-0.806 5.674-2.158 7.965-3.961 3.569-4.996 5.144-10.864 4.482-16.706 0.163-4.513-0.338-9.026-1.494-13.429-0.444-1.472-1.223-2.851-2.291-4.059-1.070-1.209-2.406-2.22-3.935-2.979-4.321-1.788-9.097-2.6-13.883-2.363h-12.078v44.209h12.078z"></path>
<path d="M1519.153 364.727h33.432l34.304 147.941h-29.012l-6.786-34.112h-29.82l-6.972 34.112h-29.447l34.302-147.941zM1547.73 461.42l-11.643-62.098-11.643 62.098h23.285z"></path>
<path d="M1614.594 364.727h21.789l41.713 84.392v-84.392h25.836v147.941h-20.731l-41.962-88.099v88.099h-26.708l0.062-147.941z"></path>
<path d="M1764.447 456.258l-34.677-91.324h29.199l21.168 58.662 19.86-58.662h28.575l-34.242 91.324v56.406h-29.883v-56.406z"></path>
<path d="M1026.887 577.346v7.737h-25.401v60.114h-10.646v-60.114h-25.527v-7.737h61.573z"></path>
<path d="M1106.511 645.2h-8.218c-0.834 0.046-1.659-0.185-2.304-0.644-0.622-0.393-1.097-0.934-1.37-1.558l-7.345-16.115h-35.238l-7.347 16.115c-0.208 0.675-0.591 1.298-1.119 1.827-0.653 0.45-1.472 0.678-2.304 0.644h-8.218l31.128-67.847h10.832l31.503 67.579zM1054.961 620.006h29.387l-12.453-27.611c-0.918-2.088-1.688-4.222-2.304-6.393-0.435 1.289-0.808 2.525-1.183 3.6l-1.119 2.847-12.328 27.557z"></path>
<path d="M1160.177 638.541c1.949 0.088 3.902 0.088 5.851 0 1.684-0.15 3.35-0.421 4.981-0.806 1.525-0.324 3.023-0.735 4.484-1.236 1.37-0.483 2.739-1.073 4.171-1.666v-15.258h-12.453c-0.307 0.015-0.616-0.026-0.905-0.117-0.289-0.093-0.552-0.236-0.775-0.421-0.205-0.152-0.366-0.342-0.474-0.556s-0.159-0.446-0.148-0.68v-5.211h24.155v26.004c-1.971 1.218-4.054 2.295-6.226 3.224-2.22 0.945-4.533 1.719-6.91 2.309-2.545 0.647-5.149 1.114-7.782 1.397-3.019 0.289-6.053 0.433-9.090 0.43-5.369 0.040-10.697-0.817-15.689-2.525-4.661-1.616-8.896-4.028-12.451-7.091-3.467-3.094-6.195-6.744-8.031-10.745-1.962-4.498-2.933-9.273-2.864-14.076-0.066-4.837 0.883-9.64 2.801-14.184 1.79-4.021 4.524-7.68 8.031-10.745 3.553-3.054 7.79-5.447 12.451-7.038 5.332-1.732 10.99-2.587 16.686-2.525 2.898-0.004 5.791 0.194 8.653 0.591 2.531 0.355 5.014 0.931 7.409 1.719 2.178 0.706 4.264 1.605 6.226 2.686 1.907 1.061 3.719 2.245 5.416 3.546l-2.988 4.191c-0.234 0.382-0.583 0.704-1.011 0.931-0.426 0.227-0.916 0.351-1.417 0.358-0.689-0.018-1.359-0.205-1.931-0.538-0.933-0.43-1.929-0.965-3.050-1.611-1.324-0.717-2.719-1.328-4.171-1.827-1.856-0.642-3.772-1.147-5.729-1.505-2.608-0.413-5.255-0.613-7.907-0.591-4.107-0.038-8.185 0.6-12.016 1.88-3.463 1.2-6.587 3.034-9.15 5.374-2.58 2.439-4.551 5.31-5.791 8.435-2.781 7.347-2.781 15.269 0 22.618 1.362 3.191 3.483 6.102 6.226 8.543 2.553 2.328 5.652 4.16 9.090 5.372 3.959 1.172 8.154 1.631 12.326 1.344z"></path>
<path d="M1259.418 637.46h33.993v7.737h-44.39v-67.851h10.646l-0.249 60.114z"></path>
<path d="M1328.772 645.197h-10.646v-67.851h10.646v67.851z"></path>
<path d="M1368.366 577.669c0.633 0.311 1.185 0.731 1.62 1.236l45.508 51.145c-0.060-0.805-0.060-1.613 0-2.417 0-0.752 0-1.505 0-2.203v-48.351h9.276v68.123h-5.354c-0.792 0.055-1.589-0.075-2.302-0.377-0.647-0.338-1.216-0.775-1.682-1.289l-45.445-51.092c0 0.805 0 1.558 0 2.309s0 1.45 0 2.096v48.353h-8.903v-67.855h5.541c0.602 0 1.194 0.11 1.743 0.322z"></path>
<path d="M1503.153 577.346v7.468h-37.727v22.402h30.568v7.199h-30.568v23.155h37.727v7.466h-48.684v-67.69h48.684z"></path>
<path d="M387.569 158.331l472.719 115.822v405.862l-472.719-115.769v-405.915zM357.25 123.734v460.227l533.296 130.703v-460.173l-533.296-130.757z"></path>
<path d="M643.072 928.305l-533.358-130.812v-460.178l533.358 130.757v460.233z"></path>
<path d="M366.089 153.119l466.555 114.37-198.413 171.26-466.617-114.425 198.476-171.205zM357.248 123.734l-247.534 213.591 533.358 130.754 247.472-213.59-533.296-130.755z"></path>
<path d="M673.081 902.416l217.463-187.696-217.463-53.343v241.039z"></path>
</svg>
