<!-- Generated by IcoMoon.io -->
<svg version="1.1" xmlns="http://www.w3.org/2000/svg" width="1902" height="1024" viewBox="0 0 1902 1024">
<title></title>
<g id="icomoon-ignore">
</g>
<path d="M440.287 393.47h-0.053c-43.622 0-78.987 31.885-78.987 71.214v0.048c0 39.329 35.365 71.212 78.987 71.212h0.053c43.622 0 78.987-31.883 78.987-71.212v-0.048c0-39.329-35.365-71.214-78.987-71.214z"></path>
<path d="M1023.294 370.706c-0.123-54.629-24.243-106.988-67.081-145.62s-100.906-60.391-161.496-60.515v0c-60.608 0.099-118.702 21.848-161.562 60.482-42.862 38.636-66.995 91.008-67.12 145.653v301.243c0 0 457.207-45.912 457.258-301.197v-0.046z"></path>
<path d="M201.143 770.821c0.11 38.011 16.901 74.437 46.707 101.319s70.203 42.033 112.36 42.145c42.149-0.112 82.536-15.256 112.34-42.128s46.603-63.287 46.727-101.288v-209.611c0 0-318.135 31.971-318.135 209.563zM360.21 808.379c-8.24 0-16.293-2.203-23.142-6.331-6.85-4.125-12.189-9.991-15.342-16.854s-3.977-14.415-2.37-21.7c1.607-7.285 5.573-13.976 11.399-19.229 5.826-5.252 13.248-8.828 21.328-10.278 8.080-1.448 16.455-0.704 24.066 2.138 7.612 2.843 14.117 7.656 18.693 13.833 4.577 6.175 7.020 13.436 7.020 20.864 0.022 4.944-1.040 9.843-3.125 14.416-2.085 4.571-5.149 8.73-9.019 12.231s-8.47 6.281-13.533 8.177-10.494 2.873-15.976 2.873v-0.141z"></path>
<path d="M651.134 740.846v78h-16.071v-78h16.071zM682.205 774.168v12.535h-35.463v-12.535h35.463zM685.956 740.846v12.59h-39.214v-12.59h39.214zM759.349 778.024v3.697c0 5.928-0.805 11.249-2.412 15.963s-3.875 8.733-6.804 12.054c-2.928 3.286-6.427 5.804-10.5 7.554-4.036 1.75-8.517 2.624-13.445 2.624-4.893 0-9.375-0.874-13.447-2.624-4.036-1.75-7.536-4.268-10.5-7.554-2.964-3.321-5.268-7.34-6.91-12.054-1.607-4.714-2.412-10.035-2.412-15.963v-3.697c0-5.965 0.805-11.286 2.412-15.963 1.607-4.714 3.875-8.733 6.802-12.054 2.966-3.321 6.466-5.857 10.501-7.607 4.070-1.75 8.552-2.626 13.445-2.626 4.93 0 9.412 0.876 13.447 2.626 4.070 1.75 7.57 4.286 10.5 7.607 2.964 3.321 5.25 7.34 6.857 12.054 1.642 4.677 2.465 9.999 2.465 15.963zM743.117 781.722v-3.803c0-4.144-0.375-7.786-1.126-10.929s-1.856-5.786-3.321-7.929-3.249-3.75-5.358-4.822c-2.107-1.106-4.517-1.66-7.232-1.66s-5.125 0.554-7.232 1.66c-2.072 1.072-3.838 2.679-5.303 4.822-1.43 2.143-2.518 4.785-3.268 7.929-0.752 3.143-1.126 6.786-1.126 10.929v3.803c0 4.107 0.375 7.749 1.126 10.928 0.75 3.143 1.856 5.804 3.321 7.982 1.465 2.143 3.249 3.769 5.358 4.875 2.107 1.108 4.517 1.662 7.232 1.662s5.125-0.554 7.232-1.662c2.107-1.106 3.875-2.732 5.303-4.875 1.43-2.178 2.518-4.838 3.268-7.982 0.752-3.178 1.126-6.821 1.126-10.928zM811.527 798.435c0-1.392-0.214-2.642-0.644-3.749-0.393-1.143-1.143-2.18-2.249-3.109-1.108-0.964-2.661-1.911-4.661-2.838-2-0.929-4.59-1.894-7.768-2.893-3.536-1.143-6.894-2.43-10.072-3.858-3.143-1.428-5.928-3.088-8.357-4.981-2.394-1.929-4.286-4.162-5.68-6.698-1.357-2.534-2.035-5.482-2.035-8.839 0-3.249 0.715-6.195 2.143-8.839 1.428-2.677 3.429-4.963 6-6.857 2.571-1.927 5.606-3.41 9.108-4.445 3.535-1.037 7.409-1.554 11.624-1.554 5.749 0 10.768 1.037 15.053 3.107 4.286 2.072 7.609 4.912 9.966 8.519 2.392 3.606 3.588 7.731 3.588 12.374h-15.963c0-2.286-0.483-4.286-1.446-6-0.929-1.75-2.357-3.125-4.286-4.125-1.893-1-4.286-1.499-7.179-1.499-2.785 0-5.107 0.428-6.963 1.285-1.858 0.821-3.249 1.946-4.178 3.376-0.929 1.392-1.393 2.964-1.393 4.714 0 1.32 0.322 2.518 0.964 3.589 0.678 1.072 1.679 2.070 3.001 2.999s2.946 1.805 4.875 2.626c1.929 0.821 4.16 1.624 6.696 2.41 4.25 1.285 7.982 2.732 11.196 4.339 3.249 1.607 5.965 3.41 8.143 5.411 2.18 2 3.822 4.268 4.93 6.804 1.106 2.536 1.66 5.411 1.66 8.625 0 3.392-0.662 6.427-1.982 9.106-1.322 2.679-3.233 4.946-5.733 6.804-2.5 1.856-5.482 3.268-8.947 4.231-3.463 0.965-7.338 1.446-11.624 1.446-3.856 0-7.66-0.499-11.41-1.499-3.75-1.035-7.161-2.589-10.233-4.661-3.035-2.072-5.464-4.714-7.285-7.929s-2.732-7.018-2.732-11.41h16.124c0 2.428 0.375 4.482 1.125 6.16s1.803 3.035 3.162 4.072c1.392 1.035 3.035 1.785 4.928 2.249 1.929 0.464 4.036 0.697 6.321 0.697 2.785 0 5.071-0.393 6.857-1.178 1.821-0.786 3.162-1.876 4.017-3.269 0.894-1.392 1.34-2.964 1.34-4.714zM873.403 740.846v78h-16.018v-78h16.018zM897.403 740.846v12.59h-63.643v-12.59h63.643zM958.901 806.31v12.535h-41.518v-12.535h41.518zM922.633 740.846v78h-16.071v-78h16.071zM953.49 772.613v12.215h-36.107v-12.215h36.107zM958.848 740.846v12.59h-41.465v-12.59h41.465zM968.276 740.846h29.091c5.963 0 11.088 0.892 15.375 2.679 4.321 1.787 7.642 4.429 9.964 7.929s3.482 7.804 3.482 12.91c0 4.18-0.713 7.77-2.143 10.768-1.392 2.964-3.374 5.447-5.947 7.446-2.534 1.966-5.517 3.536-8.945 4.716l-5.089 2.677h-25.285l-0.108-12.535h18.803c2.821 0 5.16-0.501 7.018-1.499 1.858-1 3.249-2.394 4.178-4.18 0.965-1.785 1.446-3.856 1.446-6.213 0-2.5-0.464-4.661-1.392-6.482s-2.341-3.215-4.233-4.178-4.268-1.446-7.124-1.446h-13.019v65.41h-16.071v-78zM1011.884 818.845l-17.787-34.767 16.984-0.108 17.999 34.125v0.75h-17.196zM1096.26 791.042h-19.877v-12.535h19.877c3.070 0 5.57-0.501 7.499-1.499 1.929-1.037 3.339-2.465 4.233-4.286 0.892-1.821 1.339-3.875 1.339-6.16 0-2.322-0.446-4.484-1.339-6.482-0.894-2-2.304-3.608-4.233-4.822s-4.429-1.821-7.499-1.821h-14.305v65.41h-16.071v-78h30.376c6.106 0 11.339 1.108 15.696 3.323 4.392 2.178 7.749 5.195 10.070 9.053 2.322 3.856 3.483 8.267 3.483 13.232 0 5.036-1.161 9.393-3.483 13.071-2.32 3.679-5.678 6.519-10.070 8.519-4.357 1.999-9.591 2.999-15.696 2.999zM1188.937 806.31v12.535h-41.518v-12.535h41.518zM1152.669 740.846v78h-16.071v-78h16.071zM1183.526 772.613v12.215h-36.107v-12.215h36.107zM1188.884 740.846v12.59h-41.465v-12.59h41.465zM1234.258 740.846v78h-16.016v-78h16.016zM1258.258 740.846v12.59h-63.642v-12.59h63.642zM1319.759 806.31v12.535h-41.518v-12.535h41.518zM1283.491 740.846v78h-16.071v-78h16.071zM1314.348 772.613v12.215h-36.107v-12.215h36.107zM1319.706 740.846v12.59h-41.465v-12.59h41.465zM1329.134 740.846h29.089c5.965 0 11.090 0.892 15.376 2.679 4.321 1.787 7.642 4.429 9.964 7.929 2.32 3.5 3.482 7.804 3.482 12.91 0 4.18-0.715 7.77-2.143 10.768-1.393 2.964-3.376 5.447-5.947 7.446-2.536 1.966-5.517 3.536-8.945 4.716l-5.091 2.677h-25.285l-0.106-12.535h18.803c2.821 0 5.16-0.501 7.018-1.499 1.856-1 3.249-2.394 4.178-4.18 0.964-1.785 1.446-3.856 1.446-6.213 0-2.5-0.464-4.661-1.393-6.482s-2.339-3.215-4.231-4.178c-1.893-0.964-4.268-1.446-7.126-1.446h-13.018v65.41h-16.071v-78zM1372.741 818.845l-17.787-34.767 16.982-0.108 18 34.125v0.75h-17.196zM1440.027 798.435c0-1.392-0.216-2.642-0.644-3.749-0.393-1.143-1.143-2.18-2.249-3.109-1.108-0.964-2.661-1.911-4.661-2.838-2-0.929-4.59-1.894-7.768-2.893-3.536-1.143-6.894-2.43-10.072-3.858-3.143-1.428-5.928-3.088-8.357-4.981-2.394-1.929-4.286-4.162-5.68-6.698-1.357-2.534-2.035-5.482-2.035-8.839 0-3.249 0.713-6.195 2.143-8.839 1.428-2.677 3.429-4.963 6-6.857 2.571-1.927 5.606-3.41 9.106-4.445 3.536-1.037 7.411-1.554 11.626-1.554 5.749 0 10.768 1.037 15.053 3.107 4.286 2.072 7.607 4.912 9.966 8.519 2.392 3.606 3.588 7.731 3.588 12.374h-15.963c0-2.286-0.483-4.286-1.446-6-0.929-1.75-2.357-3.125-4.286-4.125-1.893-1-4.286-1.499-7.179-1.499-2.785 0-5.107 0.428-6.963 1.285-1.858 0.821-3.251 1.946-4.178 3.376-0.929 1.392-1.393 2.964-1.393 4.714 0 1.32 0.322 2.518 0.964 3.589 0.678 1.072 1.679 2.070 3.001 2.999s2.946 1.805 4.875 2.626c1.929 0.821 4.16 1.624 6.696 2.41 4.25 1.285 7.982 2.732 11.196 4.339 3.249 1.607 5.965 3.41 8.143 5.411 2.18 2 3.822 4.268 4.93 6.804 1.106 2.536 1.66 5.411 1.66 8.625 0 3.392-0.662 6.427-1.982 9.106-1.322 2.679-3.233 4.946-5.733 6.804-2.5 1.856-5.482 3.268-8.947 4.231-3.463 0.965-7.338 1.446-11.624 1.446-3.856 0-7.66-0.499-11.41-1.499-3.75-1.035-7.161-2.589-10.233-4.661-3.035-2.072-5.464-4.714-7.285-7.929s-2.732-7.018-2.732-11.41h16.124c0 2.428 0.375 4.482 1.125 6.16s1.803 3.035 3.162 4.072c1.392 1.035 3.035 1.785 4.928 2.249 1.929 0.464 4.036 0.697 6.321 0.697 2.785 0 5.071-0.393 6.857-1.178 1.821-0.786 3.16-1.876 4.017-3.269 0.894-1.392 1.34-2.964 1.34-4.714z"></path>
</svg>
