<!-- Generated by IcoMoon.io -->
<svg version="1.1" xmlns="http://www.w3.org/2000/svg" width="1902" height="1024" viewBox="0 0 1902 1024">
<title></title>
<g id="icomoon-ignore">
</g>
<path d="M673.093 900.083c0.294 0.005 0.585 0.064 0.854 0.166 0.269 0.104 0.51 0.252 0.711 0.437l4.037 3.796c-3.134 3.072-7.007 5.528-11.357 7.203-5.091 1.827-10.58 2.708-16.101 2.587-5.188 0.091-10.342-0.731-15.142-2.416-4.33-1.547-8.219-3.871-11.408-6.815-3.251-3.054-5.758-6.63-7.369-10.523-1.763-4.339-2.635-8.907-2.573-13.5-0.073-4.623 0.869-9.218 2.776-13.544 1.763-3.917 4.423-7.495 7.823-10.523 3.447-2.971 7.57-5.305 12.114-6.859 4.972-1.646 10.266-2.467 15.598-2.416 4.952-0.102 9.878 0.645 14.486 2.2 3.997 1.483 7.667 3.54 10.853 6.082l-3.383 4.054c-0.234 0.285-0.523 0.534-0.858 0.733-0.399 0.234-0.881 0.342-1.362 0.304-0.525-0.031-1.029-0.181-1.465-0.432l-1.818-1.079-2.523-1.381c-1.090-0.512-2.22-0.958-3.381-1.337-1.498-0.457-3.034-0.819-4.593-1.079-1.98-0.311-3.994-0.455-6.007-0.432-3.84-0.040-7.649 0.576-11.205 1.812-3.317 1.145-6.31 2.88-8.783 5.089-2.516 2.35-4.456 5.107-5.703 8.11-1.423 3.434-2.123 7.055-2.070 10.697-0.060 3.697 0.64 7.376 2.070 10.869 1.231 2.975 3.134 5.716 5.603 8.066 2.311 2.191 5.177 3.9 8.379 5.003 3.295 1.167 6.832 1.754 10.397 1.726 2.061 0.026 4.12-0.090 6.159-0.346 3.328-0.347 6.521-1.335 9.339-2.891 1.412-0.795 2.747-1.69 3.986-2.673 0.519-0.422 1.201-0.669 1.918-0.689z"></path>
<path d="M789.689 881.011c0.064 4.575-0.861 9.123-2.725 13.413-1.646 3.891-4.237 7.44-7.603 10.416-3.368 2.973-7.433 5.303-11.931 6.837-9.882 3.22-20.805 3.22-30.687 0-4.469-1.558-8.508-3.893-11.862-6.859-3.365-3.026-5.976-6.607-7.673-10.523-3.635-8.686-3.635-18.181 0-26.869 1.723-3.917 4.328-7.508 7.673-10.565 3.381-2.873 7.419-5.118 11.862-6.599 9.869-3.279 20.818-3.279 30.687 0 4.484 1.556 8.541 3.891 11.913 6.857 3.323 2.999 5.914 6.532 7.621 10.394 1.869 4.319 2.794 8.896 2.725 13.5zM779.090 881.011c0.079-3.661-0.571-7.307-1.918-10.783-1.132-2.977-2.97-5.722-5.402-8.064-2.366-2.216-5.281-3.955-8.53-5.089-7.181-2.359-15.13-2.359-22.309 0-3.251 1.134-6.164 2.873-8.53 5.089-2.465 2.328-4.323 5.076-5.451 8.064-2.569 7.022-2.569 14.544 0 21.564 1.139 2.984 2.995 5.731 5.451 8.066 2.37 2.203 5.283 3.926 8.53 5.047 7.192 2.297 15.115 2.297 22.309 0 3.248-1.121 6.16-2.843 8.53-5.047 2.421-2.348 4.259-5.093 5.402-8.066 1.355-3.474 2.002-7.12 1.918-10.781z"></path>
<path d="M869.239 892.319l1.059 2.416c0.404-0.863 0.757-1.638 1.161-2.416 0.386-0.81 0.823-1.602 1.313-2.372l25.792-40.062c0.505-0.689 0.96-1.121 1.465-1.251 0.686-0.177 1.403-0.251 2.119-0.216h7.621v65.161h-9.035v-47.91c0-0.603 0-1.295 0-2.028-0.049-0.746-0.049-1.496 0-2.242l-25.944 40.622c-0.329 0.609-0.856 1.125-1.52 1.483-0.662 0.36-1.432 0.549-2.216 0.545h-1.463c-0.786 0.009-1.558-0.177-2.222-0.538s-1.19-0.878-1.514-1.49l-26.701-40.88c0 0.775 0 1.552 0 2.328 0 0.777 0 1.467 0 2.070v47.91h-8.731v-65.031h7.621c0.715-0.035 1.434 0.038 2.119 0.216 0.625 0.265 1.125 0.708 1.413 1.251l26.348 40.106c0.517 0.741 0.956 1.52 1.313 2.328z"></path>
<path d="M966.303 889.083v24.406h-10.096v-65.072h22.512c4.25-0.069 8.486 0.41 12.568 1.423 3.268 0.792 6.298 2.174 8.885 4.054 2.242 1.763 3.97 3.948 5.047 6.382 1.192 2.655 1.774 5.48 1.715 8.324 0.046 2.854-0.591 5.685-1.867 8.322-1.212 2.498-3.077 4.725-5.451 6.512-2.589 1.958-5.634 3.429-8.934 4.314-3.93 1.072-8.040 1.582-12.164 1.509l-12.215-0.172zM966.303 882.096h12.215c2.653 0.029 5.294-0.305 7.823-0.991 2.086-0.6 4.010-1.554 5.654-2.803 1.516-1.194 2.69-2.668 3.432-4.312 0.827-1.739 1.238-3.6 1.211-5.477 0.119-1.81-0.227-3.619-1.011-5.301-0.784-1.684-1.989-3.2-3.531-4.445-3.856-2.573-8.7-3.818-13.577-3.493h-12.215v26.821z"></path>
<path d="M1101.979 913.578h-7.976c-0.799 0.026-1.585-0.188-2.22-0.605-0.572-0.406-1.022-0.923-1.313-1.509l-6.864-15.742h-34.474l-7.117 15.742c-0.261 0.576-0.697 1.081-1.262 1.467-0.642 0.441-1.448 0.671-2.271 0.647h-7.976l30.285-65.167h10.5l30.689 65.167zM1052.008 889.382h28.469l-12.014-26.523c-0.918-1.995-1.677-4.041-2.271-6.124l-1.161 3.407c-0.353 1.035-0.757 1.984-1.11 2.759l-11.913 26.481z"></path>
<path d="M1145.591 848.713c0.603 0.283 1.123 0.682 1.514 1.165l44.165 49.123c0-0.777 0-1.552 0-2.286s0-1.467 0-2.156v-46.148h9.035v65.167h-5.047c-0.717 0.018-1.428-0.115-2.070-0.388-0.624-0.311-1.172-0.722-1.615-1.209l-44.114-49.079c0.048 0.748 0.048 1.496 0 2.242 0 0.733 0 1.381 0 1.984v46.449h-9.035v-65.167h5.35c0.624-0.015 1.243 0.090 1.816 0.302z"></path>
<path d="M1274.704 887.658v25.876h-10.096v-25.876l-27.913-39.247h9.035c0.779-0.038 1.549 0.159 2.171 0.561 0.55 0.419 1.011 0.914 1.364 1.467l17.465 25.315c0.706 1.079 1.311 2.070 1.816 3.019s0.909 1.854 1.262 2.761l1.313-2.803c0.49-1.026 1.064-2.021 1.717-2.977l17.211-25.488c0.362-0.508 0.805-0.973 1.313-1.379 0.6-0.448 1.377-0.678 2.171-0.647h9.136l-27.963 39.419z"></path>
<path d="M864.241 739.054c4.39 0.474 8.832 0.863 13.325 1.207 68.107-26.030 125.722-68.635 165.645-122.489 39.921-53.853 60.381-116.566 58.818-180.299l-75.056-64.13c15.261 67.856 8.123 138.002-20.617 202.589s-77.947 121.066-142.115 163.121z"></path>
<path d="M837.44 736.071l2.019 0.346c68.57-41.905 120.848-100.423 150.075-167.985 29.228-67.564 34.057-141.063 13.868-210.997l-106.906-91.339c43.24 75.079 60.645 159.102 50.191 242.3s-48.338 162.15-109.246 227.675z"></path>
<path d="M1200.002 512.775c-18.163 70.027-62.274 133.182-125.784 180.091-18.549 13.775-38.555 26.046-59.763 36.656 51.716-12.987 99.249-35.948 138.937-67.112 39.687-31.163 70.468-69.698 89.968-112.633l-43.357-37.001z"></path>
<path d="M1182.991 502.462l-61.731-52.743c-1.179 60.133-21.188 118.899-57.946 170.189-36.756 51.291-88.922 93.235-151.071 121.472h0.304c13.85-0.005 27.686-0.711 41.439-2.114 58.083-20.255 109.392-52.48 149.352-93.8 39.958-41.32 67.324-90.448 79.653-143.003z"></path>
<path d="M846.374 227.579l-73.644-63.007c-65.834 21.736-122.454 59.948-162.45 109.632-39.995 49.686-61.504 108.531-61.709 168.832v0c0.247 66.633 26.496 131.291 74.593 183.742 48.097 52.453 115.295 89.701 190.956 105.851 67.544-70.31 107.088-157.189 112.889-248.015s-22.446-180.864-80.635-257.035z"></path>
<path d="M1353.143 492.76c-0.267-79.055-37.14-154.807-102.568-210.708s-154.090-87.406-246.618-87.634c-42.756-0.038-85.149 6.704-125.027 19.88l450.893 385.242c15.439-34.053 23.347-70.259 23.32-106.779z"></path>
</svg>
