<!-- Generated by IcoMoon.io -->
<svg version="1.1" xmlns="http://www.w3.org/2000/svg" width="1902" height="1024" viewBox="0 0 1902 1024">
<title></title>
<g id="icomoon-ignore">
</g>
<path d="M916.363 108.517h-2.498c-3.838-0.232-7.678-0.325-11.518-0.419v0h-8.325c-7.263 0-14.665 0.186-22.020 0.558-0.554-0.040-1.11-0.040-1.664 0-66.64 3.776-131.93 20.432-192.294 49.056l-7.91 3.813v404.867l18.503-6.277c16.236-5.581 33.536-10.602 51.438-15.252 48.393-12.423 98.083-19.026 148.027-19.668v53.193c-6.616 0.048-13.045 0.234-19.474 0.56h-1.527c-38.437 2.108-76.577 7.963-113.887 17.483-47.252 11.831-92.837 29.594-135.675 52.869v-519.254c44.491-25.95 92.411-45.44 142.336-57.891 43.833-11.317 88.892-17.127 134.148-17.298h7.817c9.344 0.232 18.458 0.651 27.015 1.302 22.546 1.583 44.912 5.146 66.842 10.648v52.358c-21.297-4.962-42.951-8.227-64.761-9.765-0.443-0.037-0.885-0.075-1.328-0.113-4.513-0.385-9.031-0.771-13.244-0.771zM1008.508 162.037c11.61 0.884 23.638 1.302 35.803 1.302 47.574-0.174 94.945-6.249 141.040-18.088 47.23-11.875 92.795-29.652 135.629-52.916v510c-44.515 25.935-92.449 45.424-142.382 57.891-43.84 11.275-88.896 17.068-134.148 17.253-34.288 0.276-68.475-3.754-101.767-11.997v-513.302c7.863 1.813 15.958 3.487 24.192 4.882 13.508 2.279 27.756 3.952 41.633 4.975zM1268.061 165.989l-18.503 6.231c-17.024 5.719-34.185 10.835-51.44 15.391-50.235 12.91-101.864 19.531-153.715 19.716-12.072 0-23.173-0.325-33.905-1.024l-14.757-0.976v416.492l12.674 1.115c11.75 1.024 23.87 1.534 36.081 1.534 40.841-0.172 81.503-5.436 121.057-15.669 32.569-8.17 64.256-19.555 94.597-33.991l7.91-3.813v-405.006z"></path>
<path d="M653.478 826.741c-2.659-2.759-5.866-4.926-9.412-6.36s-7.353-2.103-11.173-1.964c-4.070-0.055-8.112 0.704-11.888 2.233-3.463 1.379-6.61 3.451-9.253 6.091-2.611 2.648-4.645 5.815-5.967 9.3-1.45 3.652-2.174 7.554-2.128 11.485v69.376c-0.165 4.888 0.768 9.752 2.73 14.228 1.637 3.555 4.001 6.724 6.938 9.3 2.774 2.335 6.029 4.017 9.531 4.93 3.372 0.947 6.859 1.432 10.361 1.441 3.864 0.038 7.687-0.788 11.195-2.417 3.467-1.518 6.61-3.697 9.253-6.418 2.575-2.695 4.63-5.848 6.058-9.3 1.483-3.498 2.238-7.263 2.222-11.067v-7.764h-18.134v6.184c0.055 2.112-0.307 4.213-1.064 6.184-0.591 1.476-1.488 2.809-2.637 3.906-1.123 0.907-2.41 1.587-3.792 1.999-1.225 0.408-2.503 0.627-3.792 0.651-1.62 0.188-3.259-0.055-4.754-0.709s-2.79-1.691-3.758-3.010c-1.71-2.789-2.547-6.027-2.405-9.3v-64.68c-0.113-3.586 0.649-7.146 2.22-10.368 0.942-1.465 2.273-2.633 3.844-3.374s3.315-1.022 5.038-0.812c1.563-0.055 3.116 0.271 4.526 0.951s2.635 1.695 3.569 2.955c2.030 2.664 3.090 5.947 3.006 9.3v5.998h17.949v-7.067c0.035-4.151-0.719-8.271-2.222-12.136-1.339-3.635-3.401-6.958-6.060-9.765z"></path>
<path d="M761.214 825.949c-5.782-4.882-13.080-7.579-20.63-7.625-3.694 0.015-7.356 0.677-10.825 1.953-3.522 1.262-6.771 3.187-9.574 5.672-3.004 2.701-5.402 6.014-7.033 9.719-1.827 4.237-2.725 8.821-2.637 13.438v66.54c-0.124 4.681 0.775 9.331 2.637 13.625 1.642 3.577 4.041 6.751 7.033 9.298 2.772 2.575 6.027 4.566 9.574 5.861 3.469 1.276 7.131 1.936 10.825 1.953 3.694-0.007 7.358-0.669 10.823-1.953 3.61-1.313 6.936-3.301 9.807-5.861 2.893-2.595 5.222-5.76 6.846-9.298 1.861-4.293 2.763-8.944 2.637-13.625v-66.54c0.090-4.617-0.81-9.201-2.637-13.438-1.613-3.666-3.941-6.971-6.846-9.719zM752.75 915.646c0.152 1.774-0.093 3.558-0.717 5.224s-1.613 3.169-2.891 4.401c-2.395 2.008-5.416 3.109-8.536 3.109s-6.139-1.101-8.534-3.109c-1.28-1.232-2.267-2.736-2.891-4.401-0.625-1.666-0.87-3.451-0.717-5.224v-66.54c-0.154-1.774 0.091-3.558 0.717-5.224 0.624-1.666 1.611-3.171 2.891-4.401 2.395-2.008 5.414-3.109 8.534-3.109s6.14 1.101 8.536 3.109c1.278 1.231 2.266 2.736 2.891 4.401 0.624 1.666 0.869 3.451 0.717 5.224v66.54z"></path>
<path d="M902.716 945.36v-125.965h-17.439l-22.897 66.679h-0.324l-23.084-66.679h-17.254v125.965h17.995v-76.63h0.324l17.624 54.171h8.975l17.763-54.171h0.324v76.63h17.995z"></path>
<path d="M1004.948 828.228c-2.772-3.109-6.268-5.475-10.178-6.883-4.211-1.37-8.618-2.030-13.045-1.953h-26.736v125.967h17.947v-49.196h9.251c5.601 0.254 11.173-0.931 16.19-3.441 4.081-2.266 7.484-5.59 9.854-9.626 2.075-3.35 3.474-7.080 4.116-10.973 0.706-4.74 1.031-9.531 0.971-14.321 0.176-6.049-0.415-12.096-1.757-17.995-1.198-4.359-3.472-8.344-6.614-11.579zM995.696 866.635c-0.077 2.28-0.645 4.518-1.666 6.557-1.026 1.936-2.648 3.487-4.624 4.416-2.659 1.19-5.559 1.732-8.466 1.582h-8.187v-42.825h9.251c2.787-0.137 5.563 0.406 8.095 1.58 1.856 1.066 3.33 2.693 4.209 4.65 0.982 2.213 1.516 4.601 1.573 7.022 0 2.651 0 5.44 0 8.369s0.185 5.952 0 8.649h-0.185z"></path>
<path d="M1089.969 819.396h-14.711l-27.754 125.965h17.947l5.274-27.063h24.47l5.274 27.063h17.949l-28.449-125.965zM1073.408 901.14l8.836-45.661h0.324l8.79 45.661h-17.949z"></path>
<path d="M1205.937 895.281h-0.324l-27.107-75.886h-17.254v125.965h17.947v-75.747h0.371l27.43 75.747h16.883v-125.965h-17.947v75.886z"></path>
<path d="M1315.613 819.396l-14.433 50.079h-0.369l-14.433-50.079h-19.012l24.655 72.724v53.241h17.949v-53.241l24.655-72.724h-19.012z"></path>
<path d="M603.429 980.928h8.651v24.272h5.873v-24.272h8.605v-4.976h-23.13v4.976z"></path>
<path d="M676.145 975.952l-11.333 29.248h6.245l2.406-6.649h11.657l2.498 6.649h6.384l-11.611-29.248h-6.245zM675.22 993.622l3.979-10.834 3.977 10.834h-7.956z"></path>
<path d="M748.030 994.416h6.755v3.767c-1.973 1.582-4.416 2.448-6.939 2.465-1.179 0.066-2.357-0.154-3.436-0.638-1.079-0.486-2.026-1.223-2.763-2.152-1.551-2.227-2.315-4.912-2.174-7.625 0-6.51 2.821-9.765 8.419-9.765 1.474-0.148 2.951 0.241 4.164 1.093 1.214 0.852 2.083 2.114 2.452 3.555l5.782-1.115c-1.249-5.72-5.365-8.602-12.398-8.602-3.76-0.101-7.417 1.247-10.222 3.767-1.474 1.454-2.615 3.215-3.341 5.158-0.728 1.944-1.024 4.023-0.869 6.093-0.172 4.003 1.167 7.921 3.747 10.975 1.432 1.477 3.167 2.624 5.083 3.363s3.97 1.050 6.018 0.914c4.577 0.128 9.022-1.54 12.398-4.65v-11.531h-12.676v4.928z"></path>
<path d="M821.442 975.952h-5.921v29.248h20.491v-4.976h-14.57v-24.272z"></path>
<path d="M883.52 975.952h-5.921v29.248h5.921v-29.248z"></path>
<path d="M944.21 995.483l-11.981-19.531h-5.736v29.248h5.504v-19.11l11.75 19.11h5.875v-29.248h-5.413v19.531z"></path>
<path d="M999.073 992.32h14.572v-4.976h-14.572v-6.416h15.682v-4.976h-21.603v29.248h22.204v-4.976h-16.283v-7.905z"></path>
<path d="M1132.109 987.485h-11.518v-11.533h-5.873v29.248h5.873v-12.787h11.518v12.787h5.875v-29.248h-5.875v11.533z"></path>
<path d="M1187.295 992.32h14.618v-4.976h-14.618v-6.416h15.728v-4.976h-21.603v29.248h22.157v-4.976h-16.282v-7.905z"></path>
<path d="M1262.14 992.322c5.087-0.79 7.678-3.487 7.678-8.137 0.148-1.243-0.040-2.505-0.545-3.65-0.505-1.147-1.307-2.134-2.324-2.86-2.648-1.331-5.603-1.924-8.558-1.721h-12.396v29.248h5.875v-12.229h1.156c1.253-0.077 2.505 0.146 3.653 0.651 0.859 0.53 1.574 1.264 2.083 2.139l6.384 9.3h7.031l-3.562-5.72c-1.574-2.823-3.794-5.23-6.475-7.022zM1256.218 988.277h-4.347v-7.347h4.624c2.015-0.163 4.043 0.073 5.968 0.697 0.428 0.379 0.764 0.848 0.987 1.375s0.324 1.097 0.298 1.669c-0.027 0.571-0.181 1.13-0.452 1.633s-0.651 0.94-1.112 1.275c-1.931 0.592-3.953 0.828-5.968 0.699z"></path>
<path d="M1318.576 992.32h14.57v-4.976h-14.57v-6.416h15.728v-4.976h-21.648v29.248h22.203v-4.976h-16.282v-7.905z"></path>
</svg>
