<svg width="24" height="24" viewBox="0 0 24 24" fill="none" xmlns="http://www.w3.org/2000/svg">
<g clip-path="url(#clip0_383003_996)" filter="url(#filter0_d_383003_996)">
<path d="M19.9843 4.70392C19.9468 3.85378 19.8093 3.26932 19.6124 2.76287C19.4092 2.22529 19.0967 1.74399 18.6872 1.34389C18.2871 0.937561 17.8026 0.621826 17.2713 0.421835C16.7619 0.224897 16.1805 0.0874194 15.3303 0.0499365C14.4738 0.00927917 14.2019 -0.00012207 12.0296 -0.00012207C9.85733 -0.00012207 9.58543 0.00927917 8.73212 0.0467621C7.88197 0.084245 7.29751 0.221845 6.79119 0.418661C6.25348 0.621826 5.77219 0.934387 5.37209 1.34389C4.96576 1.74399 4.65015 2.22846 4.45003 2.75982C4.2531 3.26932 4.11562 3.85061 4.07813 4.70075C4.03748 5.55724 4.02808 5.82914 4.02808 8.00144C4.02808 10.1737 4.03748 10.4456 4.07496 11.299C4.11244 12.1491 4.25004 12.7336 4.44698 13.24C4.65015 13.7776 4.96576 14.2589 5.37209 14.659C5.77219 15.0653 6.25666 15.3811 6.78801 15.581C7.29751 15.778 7.8788 15.9155 8.72906 15.9529C9.58226 15.9906 9.85428 15.9998 12.0266 15.9998C14.1989 15.9998 14.4708 15.9906 15.3241 15.9529C16.1742 15.9155 16.7587 15.778 17.265 15.581C18.3403 15.1653 19.1904 14.3152 19.6062 13.24C19.803 12.7305 19.9406 12.1491 19.9781 11.299C20.0156 10.4456 20.025 10.1737 20.025 8.00144C20.025 5.82914 20.0218 5.55724 19.9843 4.70392ZM18.5435 11.2364C18.509 12.0179 18.3778 12.4398 18.2684 12.7211C17.9995 13.4181 17.4463 13.9714 16.7493 14.2402C16.468 14.3496 16.043 14.4809 15.2646 14.5152C14.4207 14.5528 14.1676 14.562 12.0328 14.562C9.89799 14.562 9.64172 14.5528 8.80085 14.5152C8.01945 14.4809 7.5975 14.3496 7.31619 14.2402C6.96932 14.112 6.65359 13.9088 6.39731 13.6432C6.13163 13.3837 5.92847 13.0712 5.80027 12.7243C5.69087 12.443 5.55962 12.0179 5.52532 11.2396C5.48771 10.3957 5.47843 10.1425 5.47843 8.00767C5.47843 5.87285 5.48771 5.61658 5.52532 4.77584C5.55962 3.99443 5.69087 3.57248 5.80027 3.29117C5.92847 2.94418 6.13163 2.62857 6.40049 2.37217C6.65981 2.10649 6.97237 1.90333 7.31937 1.77525C7.60067 1.66585 8.0258 1.5346 8.80403 1.50017C9.64794 1.46269 9.90117 1.45329 12.0359 1.45329C14.1738 1.45329 14.4269 1.46269 15.2678 1.50017C16.0492 1.5346 16.4712 1.66585 16.7525 1.77525C17.0993 1.90333 17.4151 2.10649 17.6714 2.37217C17.937 2.63162 18.1402 2.94418 18.2684 3.29117C18.3778 3.57248 18.509 3.99748 18.5435 4.77584C18.581 5.61975 18.5904 5.87285 18.5904 8.00767C18.5904 10.1425 18.581 10.3925 18.5435 11.2364Z" fill="#F4F4FD"/>
<path d="M12.0297 3.89124C9.76055 3.89124 7.91949 5.73217 7.91949 8.00141C7.91949 10.2707 9.76055 12.1116 12.0297 12.1116C14.2989 12.1116 16.1398 10.2707 16.1398 8.00141C16.1398 5.73217 14.2989 3.89124 12.0297 3.89124ZM12.0297 10.6676C10.5576 10.6676 9.3635 9.47362 9.3635 8.00141C9.3635 6.5292 10.5576 5.33524 12.0297 5.33524C13.5019 5.33524 14.6958 6.5292 14.6958 8.00141C14.6958 9.47362 13.5019 10.6676 12.0297 10.6676Z" fill="#F4F4FD"/>
<path d="M17.262 3.72871C17.262 4.2586 16.8324 4.68825 16.3024 4.68825C15.7725 4.68825 15.3428 4.2586 15.3428 3.72871C15.3428 3.19869 15.7725 2.76917 16.3024 2.76917C16.8324 2.76917 17.262 3.19869 17.262 3.72871Z" fill="#F4F4FD"/>
</g>
<defs>
<filter id="filter0_d_383003_996" x="0" y="-0.00012207" width="24" height="24" filterUnits="userSpaceOnUse" color-interpolation-filters="sRGB">
<feFlood flood-opacity="0" result="BackgroundImageFix"/>
<feColorMatrix in="SourceAlpha" type="matrix" values="0 0 0 0 0 0 0 0 0 0 0 0 0 0 0 0 0 0 127 0" result="hardAlpha"/>
<feOffset dy="4"/>
<feGaussianBlur stdDeviation="2"/>
<feComposite in2="hardAlpha" operator="out"/>
<feColorMatrix type="matrix" values="0 0 0 0 0 0 0 0 0 0 0 0 0 0 0 0 0 0 0.25 0"/>
<feBlend mode="normal" in2="BackgroundImageFix" result="effect1_dropShadow_383003_996"/>
<feBlend mode="normal" in="SourceGraphic" in2="effect1_dropShadow_383003_996" result="shape"/>
</filter>
<clipPath id="clip0_383003_996">
<rect width="16" height="16" fill="white" transform="translate(4 -0.00012207)"/>
</clipPath>
</defs>
</svg>
