<svg aria-hidden="true" style="position: absolute; width: 0; height: 0; overflow: hidden;" version="1.1" xmlns="http://www.w3.org/2000/svg" xmlns:xlink="http://www.w3.org/1999/xlink">
<defs>
<symbol id="icon-Checkbox" viewBox="0 0 32 32">
<path stroke-linejoin="miter" stroke-linecap="butt" stroke-miterlimit="4" stroke-width="2.5" d="M4 1.25h24c1.519 0 2.75 1.231 2.75 2.75v24c0 1.519-1.231 2.75-2.75 2.75h-24c-1.519 0-2.75-1.231-2.75-2.75v-24c0-1.519 1.231-2.75 2.75-2.75z"></path>
</symbol>
<symbol id="icon-email" viewBox="0 0 24 32">
<path d="M20 8h-16c-1.1 0-1.99 0.9-1.99 2l-0.010 12c0 1.1 0.9 2 2 2h16c1.1 0 2-0.9 2-2v-12c0-1.1-0.9-2-2-2zM19.6 12.25l-7.070 4.42c-0.32 0.2-0.74 0.2-1.060 0l-7.070-4.42c-0.25-0.16-0.4-0.43-0.4-0.72 0-0.67 0.73-1.070 1.3-0.72l6.7 4.19 6.7-4.19c0.57-0.35 1.3 0.050 1.3 0.72 0 0.29-0.15 0.56-0.4 0.72z"></path>
</symbol>
<symbol id="icon-send" viewBox="0 0 32 32">
<path fill="#fff" style="fill: var(--color1, #fff)" d="M32 2.667l-32 15 10.227 3.156 15.773-12.323-11.998 13.488 0.010 0.003-0.012-0.003v7.345l5.735-5.576 7.265 2.242 5-23.333z"></path>
</symbol>
<symbol id="icon-person" viewBox="0 0 32 32">
<path d="M16 16c2.947 0 5.333-2.387 5.333-5.333s-2.387-5.333-5.333-5.333c-2.947 0-5.333 2.387-5.333 5.333s2.387 5.333 5.333 5.333zM16 18.667c-3.56 0-10.667 1.787-10.667 5.333v1.333c0 0.733 0.6 1.333 1.333 1.333h18.667c0.733 0 1.333-0.6 1.333-1.333v-1.333c0-3.547-7.107-5.333-10.667-5.333z"></path>
</symbol>
<symbol id="icon-phone" viewBox="0 0 24 32">
<path d="M19.635 18.487l-2.451-0.28c-0.589-0.067-1.167 0.135-1.582 0.55l-1.775 1.775c-2.731-1.389-4.969-3.618-6.359-6.359l1.785-1.785c0.415-0.415 0.618-0.994 0.55-1.582l-0.28-2.432c-0.116-0.975-0.936-1.708-1.92-1.708h-1.669c-1.090 0-1.997 0.907-1.93 1.997 0.511 8.24 7.102 14.821 15.332 15.332 1.090 0.068 1.997-0.839 1.997-1.93v-1.669c0.010-0.975-0.724-1.795-1.698-1.911z"></path>
</symbol>
<symbol id="icon-tick" viewBox="0 0 32 32">
<path fill="#f4f4fd" style="fill: var(--color2, #f4f4fd)" d="M27.026 4.016c0.553-0.529 1.289-0.822 2.052-0.816s1.495 0.31 2.040 0.847c0.545 0.538 0.861 1.267 0.881 2.034s-0.257 1.513-0.773 2.078l-15.663 19.694c-0.269 0.292-0.594 0.526-0.956 0.688s-0.752 0.25-1.147 0.257c-0.396 0.007-0.789-0.066-1.156-0.214s-0.701-0.371-0.98-0.652l-10.387-10.443c-0.289-0.271-0.521-0.598-0.682-0.961s-0.247-0.755-0.254-1.152 0.066-0.792 0.214-1.161c0.148-0.369 0.368-0.703 0.648-0.984s0.613-0.503 0.979-0.652 0.759-0.222 1.155-0.215c0.395 0.007 0.785 0.094 1.146 0.256s0.686 0.395 0.956 0.686l8.22 8.26 13.633-17.464c0.025-0.030 0.051-0.059 0.078-0.087h-0.004z"></path>
</symbol>
</defs>
</svg>
